<svg width="29" height="27" viewBox="0 0 29 27" fill="none" xmlns="http://www.w3.org/2000/svg">
<path d="M2.9 3V24H26.1V3H2.9ZM1.45 0H27.55C27.9346 0 28.3034 0.158035 28.5753 0.43934C28.8472 0.720644 29 1.10218 29 1.5V25.5C29 25.8978 28.8472 26.2794 28.5753 26.5607C28.3034 26.842 27.9346 27 27.55 27H1.45C1.06544 27 0.696623 26.842 0.424695 26.5607C0.152767 26.2794 0 25.8978 0 25.5V1.5C0 1.10218 0.152767 0.720644 0.424695 0.43934C0.696623 0.158035 1.06544 0 1.45 0ZM5.8 6H10.15V21H5.8V6ZM11.6 6H14.5V21H11.6V6ZM15.95 6H17.4V21H15.95V6ZM18.85 6H23.2V21H18.85V6Z" fill="white"/>
</svg>
